HIERARCHY
ROOT Hips
{
	OFFSET 0.000000 0.000000 0.000000
	CHANNELS 6 Xposition Yposition Zposition Xrotation Yrotation Zrotation
	JOINT LeftUpLeg_virtual
	{
		OFFSET 0.000000 0.000000 0.000000
		CHANNELS 3 Xrotation Yrotation Zrotation
		JOINT LeftUpLeg
		{
			OFFSET 10.205400 -3.823500 0.155100
			CHANNELS 3 Xrotation Yrotation Zrotation
			JOINT LeftLeg
			{
				OFFSET 0.708757 -12.982077 0.567790
				CHANNELS 3 Xrotation Yrotation Zrotation
				JOINT LeftFoot
				{
					OFFSET -0.708756 -10.717838 -2.184338
					CHANNELS 3 Xrotation Yrotation Zrotation
					JOINT LeftToeBase
					{
						OFFSET 0.108149 -7.191104 7.560241
						CHANNELS 3 Xrotation Yrotation Zrotation
						JOINT LeftToe_End
						{
							OFFSET 0.070230 0.081724 4.490308
							CHANNELS 3 Xrotation Yrotation Zrotation
							End Site
							{
								OFFSET 0 0 0
							}
						}
					}
				}
			}
		}
	}
	JOINT RightUpLeg_virtual
	{
		OFFSET 0.000000 0.000000 0.000000
		CHANNELS 3 Xrotation Yrotation Zrotation
		JOINT RightUpLeg
		{
			OFFSET -10.205400 -3.823500 0.005500
			CHANNELS 3 Xrotation Yrotation Zrotation
			JOINT RightLeg
			{
				OFFSET -0.708756 -12.982134 0.610632
				CHANNELS 3 Xrotation Yrotation Zrotation
				JOINT RightFoot
				{
					OFFSET 0.708754 -10.717769 -1.945823
					CHANNELS 3 Xrotation Yrotation Zrotation
					JOINT RightToeBase
					{
						OFFSET -0.108140 -7.191069 7.372968
						CHANNELS 3 Xrotation Yrotation Zrotation
						JOINT RightToe_End
						{
							OFFSET -0.070227 0.081735 4.479403
							CHANNELS 3 Xrotation Yrotation Zrotation
							End Site
							{
								OFFSET 0 0 0
							}
						}
					}
				}
			}
		}
	}
	JOINT Spine_virtual
	{
		OFFSET 0.000000 0.000000 0.000000
		CHANNELS 3 Xrotation Yrotation Zrotation
		JOINT Spine
		{
			OFFSET 0.000000 6.876099 0.125700
			CHANNELS 3 Xrotation Yrotation Zrotation
			JOINT Spine1
			{
				OFFSET 0.000000 5.730043 0.104720
				CHANNELS 3 Xrotation Yrotation Zrotation
				JOINT Spine1_split
				{
					OFFSET 0.000000 5.730043 0.104720
					CHANNELS 3 Xrotation Yrotation Zrotation
					JOINT Spine2
					{
						OFFSET 0.000000 5.730043 0.104720
						CHANNELS 3 Xrotation Yrotation Zrotation
						JOINT Neck_virtual
						{
							OFFSET 0.000000 0.000000 0.000000
							CHANNELS 3 Xrotation Yrotation Zrotation
							JOINT Neck
							{
								OFFSET 0.000000 10.314075 0.188496
								CHANNELS 3 Xrotation Yrotation Zrotation
								JOINT Head
								{
									OFFSET 0.000000 7.643700 -2.377400
									CHANNELS 3 Xrotation Yrotation Zrotation
									JOINT HeadTop_End
									{
										OFFSET 0.000000 43.788605 -13.619600
										CHANNELS 3 Xrotation Yrotation Zrotation
										End Site
										{
											OFFSET 0 0 0
										}
									}
								}
							}
						}
						JOINT LeftShoulder_virtual
						{
							OFFSET 0.000000 0.000000 0.000000
							CHANNELS 3 Xrotation Yrotation Zrotation
							JOINT LeftShoulder
							{
								OFFSET 2.196100 4.412489 0.087492
								CHANNELS 3 Xrotation Yrotation Zrotation
								JOINT LeftShoulder_split
								{
									OFFSET 2.196100 4.412489 0.087492
									CHANNELS 3 Xrotation Yrotation Zrotation
									JOINT LeftArm
									{
										OFFSET 8.771219 -2.981674 -0.026999
										CHANNELS 3 Xrotation Yrotation Zrotation
										JOINT LeftForeArm
										{
											OFFSET 8.512804 0.000000 -0.000000
											CHANNELS 3 Xrotation Yrotation Zrotation
											JOINT LeftHand
											{
												OFFSET 18.484802 0.000000 -0.000000
												CHANNELS 3 Xrotation Yrotation Zrotation
												End Site
												{
													OFFSET 0 0 0
												}
											}
										}
									}
								}
							}
						}
						JOINT RightShoulder_virtual
						{
							OFFSET 0.000000 0.000000 0.000000
							CHANNELS 3 Xrotation Yrotation Zrotation
							JOINT RightShoulder
							{
								OFFSET -2.196100 4.412496 0.070690
								CHANNELS 3 Xrotation Yrotation Zrotation
								JOINT RightShoulder_split
								{
									OFFSET -2.196100 4.412496 0.070690
									CHANNELS 3 Xrotation Yrotation Zrotation
									JOINT RightArm
									{
										OFFSET -8.771282 -2.981682 -0.094208
										CHANNELS 3 Xrotation Yrotation Zrotation
										JOINT RightForeArm
										{
											OFFSET -8.494598 0.000000 0.000000
											CHANNELS 3 Xrotation Yrotation Zrotation
											JOINT RightHand
											{
												OFFSET -18.483803 0.000000 0.000001
												CHANNELS 3 Xrotation Yrotation Zrotation
												End Site
												{
													OFFSET 0 0 0
												}
											}
										}
									}
								}
							}
						}
					}
				}
			}
		}
	}
}
MOTION
Frames: 11
Frame Time: 0.03333333
0.291719 29.944468 -0.336369 0.000000 0.000000 0.000000 -4.849962 -46.507356 -2.455830 -38.860962 0.883191 15.861275 41.801786 -12.285960 0.363758 -3.181954 -0.035206 -9.347344 -0.421415 -2.335127 0.900819 0.000000 0.000000 0.000000 -5.674839 -45.151198 -2.390803 9.024136 -13.820453 -20.574058 26.653936 -4.950860 0.431084 -31.733984 -10.977661 24.143115 -1.123964 -0.061144 0.538446 0.000000 0.000000 0.000000 -3.968544 -43.170340 -1.727088 6.168705 4.899194 -1.421760 12.560598 9.401863 -3.192015 1.057974 -1.279238 0.606807 0.000000 0.000000 0.000000 12.217164 9.117247 -3.229211 -4.155723 -2.031194 0.408259 -4.515906 21.860306 -1.312360 0.000000 0.000000 0.000000 12.078962 9.347906 -3.038753 1.936648 0.080262 -7.154359 -2.935605 -3.160069 -0.556902 -14.537262 3.662026 -61.462113 8.898837 -46.976549 5.336837 0.000000 0.000000 0.000000 12.178579 9.316574 -3.279409 1.465619 10.229950 11.695308 -1.869271 3.264557 -0.703483 3.693069 -21.373352 61.170819 -5.926951 41.608853 8.019133 0.000000 0.000000 0.000000 
0.282247 29.946865 -0.316046 0.000000 0.000000 0.000000 -4.806025 -46.507291 -2.426687 -38.861813 0.895958 15.866359 41.782053 -12.278699 0.375281 -3.247535 -0.000273 -9.300335 -0.380216 -2.340333 0.901053 0.000000 0.000000 0.000000 -5.591618 -45.175411 -2.368875 9.025089 -13.707157 -20.576006 26.790640 -4.876245 0.365078 -31.740903 -10.985593 24.188823 -1.098157 -0.071423 0.568848 0.000000 0.000000 0.000000 -3.862480 -43.198334 -1.687223 6.141126 4.890798 -1.418589 12.523412 9.373835 -3.201684 1.111782 -1.381770 0.609206 0.000000 0.000000 0.000000 12.212996 9.088568 -3.216169 -4.116146 -1.900789 0.333044 -4.510712 21.995060 -1.247397 0.000000 0.000000 0.000000 12.049875 9.319795 -3.049079 1.950449 0.066230 -7.220158 -2.871765 -3.142407 -0.418682 -14.566359 3.585320 -61.453363 8.955063 -47.118449 5.376136 0.000000 0.000000 0.000000 12.149251 9.286901 -3.259612 1.478337 10.212745 11.702157 -1.972898 3.322432 -0.661805 3.700794 -21.339268 61.191596 -5.895471 41.502801 7.989523 0.000000 0.000000 0.000000 
0.277391 29.954206 -0.299824 0.000000 0.000000 0.000000 -4.726006 -46.561007 -2.378801 -38.820616 0.901297 15.860562 41.709612 -12.254127 0.416394 -3.362516 0.071835 -9.294134 -0.331877 -2.346014 0.873153 0.000000 0.000000 0.000000 -5.515140 -45.239656 -2.338419 8.898210 -13.654966 -20.594895 26.998720 -4.778497 0.271218 -31.757497 -10.996266 24.255397 -1.055526 -0.085497 0.574820 0.000000 0.000000 0.000000 -3.735597 -43.246996 -1.640971 6.136198 4.867341 -1.415216 12.490615 9.322313 -3.200363 1.110726 -1.429643 0.644152 0.000000 0.000000 0.000000 12.189027 9.034967 -3.206756 -4.058150 -1.743233 0.265744 -4.417485 22.356719 -1.237629 0.000000 0.000000 0.000000 12.022956 9.260657 -3.055239 1.964236 0.046356 -7.261213 -2.819010 -3.101850 -0.300213 -14.613953 3.544874 -61.472051 9.009382 -47.280912 5.421356 0.000000 0.000000 0.000000 12.128814 9.234305 -3.235500 1.485416 10.190516 11.724608 -2.031695 3.335901 -0.635067 3.645491 -21.227429 61.200681 -5.828605 41.298865 7.916375 0.000000 0.000000 0.000000 
0.272496 29.961369 -0.296066 0.000000 0.000000 0.000000 -4.624473 -46.653187 -2.311980 -38.749579 0.907804 15.840284 41.611797 -12.219559 0.477944 -3.489255 0.169748 -9.335736 -0.294415 -2.352603 0.826108 0.000000 0.000000 0.000000 -5.448692 -45.325675 -2.292907 8.641291 -13.657029 -20.638672 27.253734 -4.659371 0.157842 -31.745422 -11.009441 24.392007 -1.008170 -0.101315 0.558668 0.000000 0.000000 0.000000 -3.617173 -43.298383 -1.590791 6.155412 4.828513 -1.415694 12.461485 9.245339 -3.187769 1.044108 -1.429172 0.687548 0.000000 0.000000 0.000000 12.153687 8.956542 -3.198882 -3.999234 -1.552409 0.201037 -4.268834 22.974924 -1.305998 0.000000 0.000000 0.000000 11.994791 9.170088 -3.053429 1.976016 0.020169 -7.281212 -2.795151 -3.022407 -0.216094 -14.649991 3.564073 -61.509924 9.064496 -47.481016 5.478180 0.000000 0.000000 0.000000 12.108668 9.157535 -3.206251 1.490210 10.160792 11.738367 -2.063278 3.312560 -0.634740 3.546177 -21.075879 61.188475 -5.746793 41.036869 7.817331 0.000000 0.000000 0.000000 
0.269426 29.966610 -0.298592 0.000000 0.000000 0.000000 -4.532221 -46.759332 -2.238559 -38.671985 0.938151 15.815040 41.518637 -12.178728 0.543295 -3.590873 0.280467 -9.400271 -0.262572 -2.364805 0.775269 0.000000 0.000000 0.000000 -5.406632 -45.412767 -2.239529 8.336693 -13.717468 -20.675005 27.483180 -4.532790 0.019461 -31.698478 -11.025655 24.603701 -1.015765 -0.118352 0.522825 0.000000 0.000000 0.000000 -3.540950 -43.353263 -1.539775 6.193686 4.776137 -1.420483 12.439228 9.141284 -3.170609 0.975263 -1.391670 0.706589 0.000000 0.000000 0.000000 12.115078 8.851074 -3.191900 -3.964702 -1.315695 0.128335 -4.106655 23.865528 -1.472788 0.000000 0.000000 0.000000 11.967835 9.045238 -3.045738 1.985137 -0.010297 -7.288339 -2.771074 -2.931986 -0.196628 -14.662924 3.622203 -61.557046 9.141183 -47.732702 5.557335 0.000000 0.000000 0.000000 12.085772 9.055846 -3.175120 1.492891 10.128874 11.731382 -2.066703 3.271177 -0.646590 3.427123 -20.925140 61.164385 -5.680116 40.784128 7.719549 0.000000 0.000000 0.000000 
0.269940 29.969414 -0.301493 0.000000 0.000000 0.000000 -4.462321 -46.850993 -2.160839 -38.601432 1.015631 15.786203 41.446896 -12.136384 0.594993 -3.653814 0.379145 -9.458637 -0.237724 -2.386445 0.738415 0.000000 0.000000 0.000000 -5.399354 -45.482199 -2.186463 8.086659 -13.833822 -20.660714 27.625026 -4.434995 -0.152370 -31.659474 -11.052570 24.825422 -1.082735 -0.131384 0.481580 0.000000 0.000000 0.000000 -3.528156 -43.405425 -1.487398 6.237099 4.713166 -1.427453 12.420326 9.008737 -3.156894 0.914167 -1.329277 0.708002 0.000000 0.000000 0.000000 12.077740 8.714478 -3.187886 -3.981817 -1.017041 0.032676 -3.954430 25.046416 -1.755104 0.000000 0.000000 0.000000 11.943894 8.887842 -3.037267 1.993998 -0.039848 -7.293791 -2.703107 -2.886573 -0.206952 -14.647880 3.685502 -61.604714 9.249041 -48.024354 5.659446 0.000000 0.000000 0.000000 12.056736 8.925402 -3.144466 1.492247 10.102565 11.691089 -2.024116 3.225996 -0.660119 3.301272 -20.802063 61.136340 -5.645478 40.593498 7.643502 0.000000 0.000000 0.000000 
0.273302 29.971678 -0.296501 0.000000 0.000000 0.000000 -4.425851 -46.913369 -2.071187 -38.526293 1.168709 15.762605 41.396004 -12.097417 0.617536 -3.705118 0.445831 -9.474036 -0.211120 -2.422738 0.730674 0.000000 0.000000 0.000000 -5.434632 -45.511716 -2.137189 7.933616 -14.005739 -20.575778 27.658347 -4.424096 -0.348241 -31.662554 -11.084567 24.953388 -1.142073 -0.132695 0.457802 0.000000 0.000000 0.000000 -3.572858 -43.468130 -1.427734 6.288321 4.647721 -1.435138 12.399843 8.849601 -3.153090 0.880652 -1.275932 0.721241 0.000000 0.000000 0.000000 12.042457 8.549094 -3.189709 -4.072138 -0.644075 -0.089036 -3.827543 26.510932 -2.152884 0.000000 0.000000 0.000000 11.927691 8.701819 -3.030458 2.003390 -0.064234 -7.295329 -2.611458 -2.845848 -0.232115 -14.615910 3.702710 -61.638844 9.370140 -48.299392 5.759455 0.000000 0.000000 0.000000 12.020577 8.765656 -3.119805 1.487695 10.090871 11.618920 -1.977283 3.175621 -0.642412 3.180564 -20.710008 61.114128 -5.636640 40.463079 7.589735 0.000000 0.000000 0.000000 
0.280025 29.977392 -0.290867 0.000000 0.000000 0.000000 -4.412796 -46.932726 -1.960939 -38.445393 1.390992 15.743412 41.372170 -12.081612 0.612880 -3.785773 0.449680 -9.449701 -0.210429 -2.474241 0.774299 0.000000 0.000000 0.000000 -5.513780 -45.506914 -2.087220 7.861389 -14.209602 -20.436793 27.602695 -4.517157 -0.551667 -31.696241 -11.105062 24.975232 -1.173960 -0.123165 0.460433 0.000000 0.000000 0.000000 -3.662280 -43.538505 -1.353989 6.353977 4.585988 -1.440209 12.372833 8.671428 -3.160800 0.897148 -1.254553 0.742424 0.000000 0.000000 0.000000 12.006019 8.362010 -3.198159 -4.253658 -0.183807 -0.227707 -3.732086 28.229481 -2.649170 0.000000 0.000000 0.000000 11.918700 8.496823 -3.027156 2.013038 -0.074365 -7.299379 -2.496518 -2.797529 -0.258576 -14.567279 3.648446 -61.651241 9.482037 -48.474525 5.828422 0.000000 0.000000 0.000000 11.989712 8.583499 -3.108393 1.473643 10.100620 11.532015 -1.948935 3.126948 -0.579830 3.088638 -20.628288 61.106144 -5.635026 40.343844 7.548111 0.000000 0.000000 0.000000 
0.286058 29.988077 -0.282433 0.000000 0.000000 0.000000 -4.434025 -46.910767 -1.839492 -38.349931 1.640073 15.700619 41.347069 -12.096225 0.591488 -3.903150 0.387168 -9.415152 -0.257437 -2.535170 0.879138 0.000000 0.000000 0.000000 -5.631567 -45.486902 -2.027234 7.825815 -14.386895 -20.286203 27.505266 -4.696971 -0.738026 -31.735596 -11.091594 24.951103 -1.196528 -0.108258 0.477439 0.000000 0.000000 0.000000 -3.788098 -43.596718 -1.271935 6.438281 4.527696 -1.438790 12.335182 8.488277 -3.177179 0.918618 -1.274118 0.757382 0.000000 0.000000 0.000000 11.970590 8.169040 -3.210403 -4.530473 0.360085 -0.364231 -3.654167 30.156118 -3.217250 0.000000 0.000000 0.000000 11.915255 8.288687 -3.025032 2.020299 -0.067988 -7.303374 -2.391537 -2.732203 -0.287563 -14.481968 3.536897 -61.634883 9.554160 -48.525229 5.842281 0.000000 0.000000 0.000000 11.965767 8.391441 -3.108444 1.447526 10.131495 11.441855 -1.943025 3.096066 -0.486501 3.035847 -20.534955 61.095994 -5.614973 40.173363 7.502299 0.000000 0.000000 0.000000 
0.293187 30.001196 -0.269699 0.000000 0.000000 0.000000 -4.480756 -46.855852 -1.712920 -38.249483 1.857334 15.609305 41.326094 -12.126374 0.575218 -4.039180 0.296466 -9.372885 -0.322415 -2.597109 1.020977 0.000000 0.000000 0.000000 -5.770842 -45.465646 -1.962271 7.779653 -14.470319 -20.166712 27.412696 -4.941925 -0.895854 -31.741474 -11.031815 24.954151 -1.254696 -0.092019 0.481386 0.000000 0.000000 0.000000 -3.945311 -43.630169 -1.196091 6.543171 4.472268 -1.427295 12.292566 8.314166 -3.196554 0.929317 -1.294535 0.775623 0.000000 0.000000 0.000000 11.938939 7.986333 -3.223794 -4.894131 0.972155 -0.482259 -3.575300 32.225130 -3.819053 0.000000 0.000000 0.000000 11.919458 8.090874 -3.018863 2.023537 -0.041153 -7.303503 -2.312479 -2.650326 -0.355519 -14.366231 3.396046 -61.586231 9.585669 -48.476250 5.800005 0.000000 0.000000 0.000000 11.944537 8.204026 -3.112991 1.409477 10.178822 11.355857 -1.942538 3.068453 -0.393589 3.010829 -20.418692 61.075838 -5.563153 39.930454 7.444553 0.000000 0.000000 0.000000 
0.297635 30.014473 -0.254459 0.000000 0.000000 0.000000 -4.557798 -46.787568 -1.612810 -38.152764 1.985744 15.429346 41.322207 -12.131422 0.614271 -4.180509 0.242035 -9.309369 -0.363649 -2.646206 1.162014 0.000000 0.000000 0.000000 -5.911810 -45.452809 -1.903091 7.729196 -14.399724 -20.090416 27.339270 -5.248337 -1.021884 -31.697911 -10.949177 25.061600 -1.373233 -0.088850 0.453666 0.000000 0.000000 0.000000 -4.144372 -43.596551 -1.151695 6.667327 4.410111 -1.400893 12.252854 8.154600 -3.206727 0.944999 -1.298210 0.774960 0.000000 0.000000 0.000000 11.917096 7.823466 -3.233623 -5.321090 1.634447 -0.575312 -3.480811 34.374826 -4.428584 0.000000 0.000000 0.000000 11.933085 7.910811 -3.000046 2.018662 -0.004235 -7.301692 -2.234841 -2.562670 -0.450086 -14.242039 3.260817 -61.512424 9.593923 -48.367425 5.719016 0.000000 0.000000 0.000000 11.923622 8.030306 -3.109291 1.362528 10.226509 11.271716 -1.941256 3.041302 -0.304748 3.015066 -20.282515 61.029311 -5.473420 39.646605 7.374061 0.000000 0.000000 0.000000 
